<svg width="513" height="342" viewBox="0 0 513 342" fill="none" xmlns="http://www.w3.org/2000/svg">
<g clip-path="url(#clip0_301_989)">
<path d="M17.2998 0H495.7V342H17.2998V0Z" fill="#181A93"/>
<path d="M0 0H513V114H0V0Z" fill="#FFA44A"/>
<path d="M0 228H513V342H0V228Z" fill="#1A9F0B"/>
<path d="M0 114H513V228H0V114Z" fill="white"/>
<path d="M256.5 205.2C275.388 205.2 290.7 189.888 290.7 171C290.7 152.112 275.388 136.8 256.5 136.8C237.612 136.8 222.3 152.112 222.3 171C222.3 189.888 237.612 205.2 256.5 205.2Z" fill="white"/>
<path d="M256.5 216.6C231.4 216.6 210.9 196.1 210.9 171C210.9 145.9 231.4 125.4 256.5 125.4C281.6 125.4 302.1 145.9 302.1 171C302.1 196.1 281.6 216.6 256.5 216.6ZM256.5 205.2C274.7 205.2 290.7 189.2 290.7 171C290.7 152.8 274.8 136.8 256.5 136.8C238.2 136.8 222.3 152.8 222.3 171C222.3 189.2 238.3 205.2 256.5 205.2Z" fill="#181A93"/>
<path d="M256.5 193.8C269.092 193.8 279.3 183.592 279.3 171C279.3 158.408 269.092 148.2 256.5 148.2C243.908 148.2 233.7 158.408 233.7 171C233.7 183.592 243.908 193.8 256.5 193.8Z" fill="#181A93"/>
</g>
<defs>
<clipPath id="clip0_301_989">
<rect width="513" height="342" fill="white"/>
</clipPath>
</defs>
</svg>
